<svg width="350" height="77" viewBox="0 0 350 77" fill="none" xmlns="http://www.w3.org/2000/svg">
<path d="M3.03409 46V11.0909H16.8068C19.4432 11.0909 21.6932 11.5625 23.5568 12.5057C25.4318 13.4375 26.858 14.7614 27.8352 16.4773C28.8239 18.1818 29.3182 20.1875 29.3182 22.4943C29.3182 24.8125 28.8182 26.8068 27.8182 28.4773C26.8182 30.1364 25.3693 31.4091 23.4716 32.2955C21.5852 33.1818 19.3011 33.625 16.6193 33.625H7.39773V27.6932H15.4261C16.8352 27.6932 18.0057 27.5 18.9375 27.1136C19.8693 26.7273 20.5625 26.1477 21.017 25.375C21.483 24.6023 21.7159 23.642 21.7159 22.4943C21.7159 21.3352 21.483 20.358 21.017 19.5625C20.5625 18.767 19.8636 18.1648 18.9205 17.7557C17.9886 17.3352 16.8125 17.125 15.392 17.125H10.4148V46H3.03409ZM21.8864 30.1136L30.5625 46H22.4148L13.9261 30.1136H21.8864ZM45.9077 46.5114C43.2145 46.5114 40.8963 45.9659 38.9531 44.875C37.0213 43.7727 35.5327 42.2159 34.4872 40.2045C33.4418 38.1818 32.919 35.7898 32.919 33.0284C32.919 30.3352 33.4418 27.9716 34.4872 25.9375C35.5327 23.9034 37.0043 22.3182 38.902 21.1818C40.8111 20.0455 43.0497 19.4773 45.6179 19.4773C47.3452 19.4773 48.9531 19.7557 50.4418 20.3125C51.9418 20.858 53.2486 21.6818 54.3622 22.7841C55.4872 23.8864 56.3622 25.2727 56.9872 26.9432C57.6122 28.6023 57.9247 30.5455 57.9247 32.7727V34.767H35.8168V30.267H51.0895C51.0895 29.2216 50.8622 28.2955 50.4077 27.4886C49.9531 26.6818 49.3224 26.0511 48.5156 25.5966C47.7202 25.1307 46.794 24.8977 45.7372 24.8977C44.6349 24.8977 43.6577 25.1534 42.8054 25.6648C41.9645 26.1648 41.3054 26.8409 40.8281 27.6932C40.3509 28.5341 40.1065 29.4716 40.0952 30.5057V34.7841C40.0952 36.0795 40.3338 37.1989 40.8111 38.142C41.2997 39.0852 41.9872 39.8125 42.8736 40.3239C43.7599 40.8352 44.8111 41.0909 46.027 41.0909C46.8338 41.0909 47.5724 40.9773 48.2429 40.75C48.9134 40.5227 49.4872 40.1818 49.9645 39.7273C50.4418 39.2727 50.8054 38.7159 51.0554 38.0568L57.7713 38.5C57.4304 40.1136 56.7315 41.5227 55.6747 42.7273C54.6293 43.9205 53.277 44.8523 51.6179 45.5227C49.9702 46.1818 48.0668 46.5114 45.9077 46.5114ZM74.4929 46.5114C71.8111 46.5114 69.5043 45.9432 67.5724 44.8068C65.652 43.6591 64.1747 42.0682 63.1406 40.0341C62.1179 38 61.6065 35.6591 61.6065 33.0114C61.6065 30.3295 62.1236 27.9773 63.1577 25.9545C64.2031 23.9205 65.6861 22.3352 67.6065 21.1989C69.527 20.0511 71.8111 19.4773 74.4588 19.4773C76.7429 19.4773 78.7429 19.892 80.4588 20.7216C82.1747 21.5511 83.5327 22.7159 84.5327 24.2159C85.5327 25.7159 86.0838 27.4773 86.1861 29.5H79.3338C79.1406 28.1932 78.6293 27.142 77.7997 26.3466C76.9815 25.5398 75.9077 25.1364 74.5781 25.1364C73.4531 25.1364 72.4702 25.4432 71.6293 26.0568C70.7997 26.6591 70.152 27.5398 69.6861 28.6989C69.2202 29.858 68.9872 31.2614 68.9872 32.9091C68.9872 34.5795 69.2145 36 69.669 37.1705C70.1349 38.3409 70.7884 39.233 71.6293 39.8466C72.4702 40.4602 73.4531 40.767 74.5781 40.767C75.4077 40.767 76.152 40.5966 76.8111 40.2557C77.4815 39.9148 78.0327 39.4205 78.4645 38.7727C78.9077 38.1136 79.1974 37.3239 79.3338 36.4034H86.1861C86.0724 38.4034 85.527 40.1648 84.5497 41.6875C83.5838 43.1989 82.2486 44.3807 80.544 45.233C78.8395 46.0852 76.8224 46.5114 74.4929 46.5114ZM102.767 46.5114C100.074 46.5114 97.7557 45.9659 95.8125 44.875C93.8807 43.7727 92.392 42.2159 91.3466 40.2045C90.3011 38.1818 89.7784 35.7898 89.7784 33.0284C89.7784 30.3352 90.3011 27.9716 91.3466 25.9375C92.392 23.9034 93.8636 22.3182 95.7614 21.1818C97.6705 20.0455 99.9091 19.4773 102.477 19.4773C104.205 19.4773 105.813 19.7557 107.301 20.3125C108.801 20.858 110.108 21.6818 111.222 22.7841C112.347 23.8864 113.222 25.2727 113.847 26.9432C114.472 28.6023 114.784 30.5455 114.784 32.7727V34.767H92.6761V30.267H107.949C107.949 29.2216 107.722 28.2955 107.267 27.4886C106.813 26.6818 106.182 26.0511 105.375 25.5966C104.58 25.1307 103.653 24.8977 102.597 24.8977C101.494 24.8977 100.517 25.1534 99.6648 25.6648C98.8239 26.1648 98.1648 26.8409 97.6875 27.6932C97.2102 28.5341 96.9659 29.4716 96.9545 30.5057V34.7841C96.9545 36.0795 97.1932 37.1989 97.6705 38.142C98.1591 39.0852 98.8466 39.8125 99.733 40.3239C100.619 40.8352 101.67 41.0909 102.886 41.0909C103.693 41.0909 104.432 40.9773 105.102 40.75C105.773 40.5227 106.347 40.1818 106.824 39.7273C107.301 39.2727 107.665 38.7159 107.915 38.0568L114.631 38.5C114.29 40.1136 113.591 41.5227 112.534 42.7273C111.489 43.9205 110.136 44.8523 108.477 45.5227C106.83 46.1818 104.926 46.5114 102.767 46.5114ZM126.784 30.8636V46H119.523V19.8182H126.443V24.4375H126.75C127.33 22.9148 128.301 21.7102 129.665 20.8239C131.028 19.9261 132.682 19.4773 134.625 19.4773C136.443 19.4773 138.028 19.875 139.381 20.6705C140.733 21.4659 141.784 22.6023 142.534 24.0795C143.284 25.5455 143.659 27.2955 143.659 29.3295V46H136.398V30.625C136.409 29.0227 136 27.7727 135.17 26.875C134.341 25.9659 133.199 25.5114 131.744 25.5114C130.767 25.5114 129.903 25.7216 129.153 26.142C128.415 26.5625 127.835 27.1761 127.415 27.983C127.006 28.7784 126.795 29.7386 126.784 30.8636ZM163.308 19.8182V25.2727H147.541V19.8182H163.308ZM151.121 13.5455H158.382V37.9545C158.382 38.625 158.484 39.1477 158.689 39.5227C158.893 39.8864 159.178 40.142 159.541 40.2898C159.916 40.4375 160.348 40.5114 160.837 40.5114C161.178 40.5114 161.518 40.483 161.859 40.4261C162.2 40.358 162.462 40.3068 162.643 40.2727L163.786 45.6761C163.422 45.7898 162.911 45.9205 162.251 46.0682C161.592 46.2273 160.791 46.3239 159.848 46.358C158.098 46.4261 156.564 46.1932 155.246 45.6591C153.939 45.125 152.922 44.2955 152.195 43.1705C151.467 42.0455 151.109 40.625 151.121 38.9091V13.5455ZM179.148 46V19.8182H186.188V24.3864H186.46C186.938 22.7614 187.739 21.5341 188.864 20.7045C189.989 19.8636 191.284 19.4432 192.75 19.4432C193.114 19.4432 193.506 19.4659 193.926 19.5114C194.347 19.5568 194.716 19.6193 195.034 19.6989V26.142C194.693 26.0398 194.222 25.9489 193.619 25.8693C193.017 25.7898 192.466 25.75 191.966 25.75C190.898 25.75 189.943 25.983 189.102 26.4489C188.273 26.9034 187.614 27.5398 187.125 28.358C186.648 29.1761 186.409 30.1193 186.409 31.1875V46H179.148ZM209.501 46.5114C206.808 46.5114 204.49 45.9659 202.547 44.875C200.615 43.7727 199.126 42.2159 198.081 40.2045C197.036 38.1818 196.513 35.7898 196.513 33.0284C196.513 30.3352 197.036 27.9716 198.081 25.9375C199.126 23.9034 200.598 22.3182 202.496 21.1818C204.405 20.0455 206.643 19.4773 209.212 19.4773C210.939 19.4773 212.547 19.7557 214.036 20.3125C215.536 20.858 216.842 21.6818 217.956 22.7841C219.081 23.8864 219.956 25.2727 220.581 26.9432C221.206 28.6023 221.518 30.5455 221.518 32.7727V34.767H199.411V30.267H214.683C214.683 29.2216 214.456 28.2955 214.001 27.4886C213.547 26.6818 212.916 26.0511 212.109 25.5966C211.314 25.1307 210.388 24.8977 209.331 24.8977C208.229 24.8977 207.251 25.1534 206.399 25.6648C205.558 26.1648 204.899 26.8409 204.422 27.6932C203.945 28.5341 203.7 29.4716 203.689 30.5057V34.7841C203.689 36.0795 203.928 37.1989 204.405 38.142C204.893 39.0852 205.581 39.8125 206.467 40.3239C207.354 40.8352 208.405 41.0909 209.621 41.0909C210.428 41.0909 211.166 40.9773 211.837 40.75C212.507 40.5227 213.081 40.1818 213.558 39.7273C214.036 39.2727 214.399 38.7159 214.649 38.0568L221.365 38.5C221.024 40.1136 220.325 41.5227 219.268 42.7273C218.223 43.9205 216.871 44.8523 215.212 45.5227C213.564 46.1818 211.661 46.5114 209.501 46.5114ZM226.257 55.8182V19.8182H233.416V24.2159H233.74C234.058 23.5114 234.518 22.7955 235.121 22.0682C235.734 21.3295 236.53 20.7159 237.507 20.2273C238.496 19.7273 239.723 19.4773 241.189 19.4773C243.098 19.4773 244.859 19.9773 246.473 20.9773C248.087 21.9659 249.376 23.4602 250.342 25.4602C251.308 27.4489 251.791 29.9432 251.791 32.9432C251.791 35.8636 251.32 38.3295 250.376 40.3409C249.445 42.3409 248.172 43.858 246.558 44.892C244.956 45.9148 243.161 46.4261 241.172 46.4261C239.763 46.4261 238.564 46.1932 237.575 45.7273C236.598 45.2614 235.797 44.6761 235.172 43.9716C234.547 43.2557 234.07 42.5341 233.74 41.8068H233.518V55.8182H226.257ZM233.365 32.9091C233.365 34.4659 233.581 35.8239 234.013 36.983C234.445 38.142 235.07 39.0455 235.888 39.6932C236.706 40.3295 237.7 40.6477 238.871 40.6477C240.053 40.6477 241.053 40.3239 241.871 39.6761C242.689 39.017 243.308 38.108 243.729 36.9489C244.161 35.7784 244.376 34.4318 244.376 32.9091C244.376 31.3977 244.166 30.0682 243.746 28.9205C243.325 27.7727 242.706 26.875 241.888 26.2273C241.07 25.5795 240.064 25.2557 238.871 25.2557C237.689 25.2557 236.689 25.5682 235.871 26.1932C235.064 26.8182 234.445 27.7045 234.013 28.8523C233.581 30 233.365 31.3523 233.365 32.9091ZM268.462 46.5114C265.814 46.5114 263.524 45.9489 261.592 44.8239C259.672 43.6875 258.189 42.108 257.143 40.0852C256.098 38.0511 255.575 35.6932 255.575 33.0114C255.575 30.3068 256.098 27.9432 257.143 25.9205C258.189 23.8864 259.672 22.3068 261.592 21.1818C263.524 20.0455 265.814 19.4773 268.462 19.4773C271.109 19.4773 273.393 20.0455 275.314 21.1818C277.246 22.3068 278.734 23.8864 279.78 25.9205C280.825 27.9432 281.348 30.3068 281.348 33.0114C281.348 35.6932 280.825 38.0511 279.78 40.0852C278.734 42.108 277.246 43.6875 275.314 44.8239C273.393 45.9489 271.109 46.5114 268.462 46.5114ZM268.496 40.8864C269.7 40.8864 270.706 40.5455 271.513 39.8636C272.32 39.1705 272.928 38.2273 273.337 37.0341C273.757 35.8409 273.967 34.483 273.967 32.9602C273.967 31.4375 273.757 30.0795 273.337 28.8864C272.928 27.6932 272.32 26.75 271.513 26.0568C270.706 25.3636 269.7 25.017 268.496 25.017C267.28 25.017 266.257 25.3636 265.428 26.0568C264.609 26.75 263.99 27.6932 263.57 28.8864C263.161 30.0795 262.956 31.4375 262.956 32.9602C262.956 34.483 263.161 35.8409 263.57 37.0341C263.99 38.2273 264.609 39.1705 265.428 39.8636C266.257 40.5455 267.28 40.8864 268.496 40.8864ZM286.07 46V19.8182H293.109V24.3864H293.382C293.859 22.7614 294.661 21.5341 295.786 20.7045C296.911 19.8636 298.206 19.4432 299.672 19.4432C300.036 19.4432 300.428 19.4659 300.848 19.5114C301.268 19.5568 301.638 19.6193 301.956 19.6989V26.142C301.615 26.0398 301.143 25.9489 300.541 25.8693C299.939 25.7898 299.388 25.75 298.888 25.75C297.82 25.75 296.865 25.983 296.024 26.4489C295.195 26.9034 294.536 27.5398 294.047 28.358C293.57 29.1761 293.331 30.1193 293.331 31.1875V46H286.07ZM320.949 19.8182V25.2727H305.182V19.8182H320.949ZM308.761 13.5455H316.023V37.9545C316.023 38.625 316.125 39.1477 316.33 39.5227C316.534 39.8864 316.818 40.142 317.182 40.2898C317.557 40.4375 317.989 40.5114 318.477 40.5114C318.818 40.5114 319.159 40.483 319.5 40.4261C319.841 40.358 320.102 40.3068 320.284 40.2727L321.426 45.6761C321.063 45.7898 320.551 45.9205 319.892 46.0682C319.233 46.2273 318.432 46.3239 317.489 46.358C315.739 46.4261 314.205 46.1932 312.886 45.6591C311.58 45.125 310.563 44.2955 309.835 43.1705C309.108 42.0455 308.75 40.625 308.761 38.9091V13.5455ZM347.135 27.2841L340.487 27.6932C340.374 27.125 340.129 26.6136 339.754 26.1591C339.379 25.6932 338.885 25.3239 338.271 25.0511C337.669 24.767 336.947 24.625 336.107 24.625C334.982 24.625 334.033 24.8636 333.26 25.3409C332.487 25.8068 332.101 26.4318 332.101 27.2159C332.101 27.8409 332.351 28.3693 332.851 28.8011C333.351 29.233 334.209 29.5795 335.425 29.8409L340.163 30.7955C342.709 31.3182 344.607 32.1591 345.857 33.3182C347.107 34.4773 347.732 36 347.732 37.8864C347.732 39.6023 347.226 41.108 346.214 42.4034C345.214 43.6989 343.839 44.7102 342.089 45.4375C340.351 46.1534 338.345 46.5114 336.072 46.5114C332.607 46.5114 329.845 45.7898 327.788 44.3466C325.743 42.892 324.544 40.9148 324.192 38.4148L331.334 38.0398C331.55 39.0966 332.072 39.9034 332.902 40.4602C333.732 41.0057 334.794 41.2784 336.089 41.2784C337.362 41.2784 338.385 41.0341 339.158 40.5455C339.942 40.0455 340.339 39.4034 340.351 38.6193C340.339 37.9602 340.061 37.4205 339.516 37C338.97 36.5682 338.129 36.2386 336.993 36.0114L332.459 35.108C329.902 34.5966 327.999 33.7102 326.749 32.4489C325.51 31.1875 324.891 29.5795 324.891 27.625C324.891 25.9432 325.345 24.4943 326.254 23.2784C327.175 22.0625 328.464 21.125 330.124 20.4659C331.794 19.8068 333.749 19.4773 335.987 19.4773C339.294 19.4773 341.896 20.1761 343.794 21.5739C345.703 22.9716 346.817 24.875 347.135 27.2841Z" fill="white"/>
<rect y="66" width="110" height="11" fill="white"/>
</svg>
